<svg height="512" viewBox="0 0 512 512" width="512" xmlns="http://www.w3.org/2000/svg"><g id="Filled_outline" data-name="Filled outline"><path d="m434.918 296.769-125.127-26.969-20.091-20.7-26.832 10.585-226.254-47.058a16 16 0 0 1 -12.27-19.012l33.707-156.409a16 16 0 0 1 19.012-12.27l226.254 47.064 20.091 20.7 26.832-10.588 125.127 26.966a16 16 0 0 1 12.271 19.012l-33.708 156.41a16 16 0 0 1 -19.012 12.269z" fill="#2b78b8"/><path d="m488 128v160a16 16 0 0 1 -16 16h-128l-24-16-24 16h-256a16 16 0 0 1 -16-16v-160a16 16 0 0 1 16-16h256l24 16 24-16h128a16 16 0 0 1 16 16z" fill="#348fd9"/><path d="m488 128v160a16 16 0 0 1 -16 16h-128l-24-16-24 16h-191.59l296.13-192h71.46a16 16 0 0 1 16 16z" fill="#3086cd"/><path d="m280 224h-136v-48h16l16 16h88l16 16z" fill="#f35244"/><path d="m224 192h-32l-16-48h24z" fill="#de4132"/><path d="m224 224h-32l-16 48h24z" fill="#f35244"/><path d="m104 304 26.464-46.312a19.226 19.226 0 0 1 16.694-9.688 19.228 19.228 0 0 1 17.749 26.623l-28.907 69.377a95.263 95.263 0 0 1 16 52.844v4.667a95.255 95.255 0 0 1 -10.058 42.6l-5.942 11.889v32h-80v-32l-6.422-102.751a130.084 130.084 0 0 1 6.422-49.249z" fill="#fec9a3"/><path d="m409.325 304-26.464-46.312a19.229 19.229 0 0 0 -16.695-9.688 19.228 19.228 0 0 0 -17.748 26.623l28.907 69.377a95.263 95.263 0 0 0 -16 52.844v4.667a95.267 95.267 0 0 0 10.057 42.6l5.943 11.889v32h80v-32l6.422-102.751a130.084 130.084 0 0 0 -6.422-49.249z" fill="#fec9a3"/><path d="m477.056 101.26-125.13-26.97a8.012 8.012 0 0 0 -4.623.378l-21.867 8.632-16.374-16.872a8.011 8.011 0 0 0 -4.113-2.261l-226.197-47.046a23.989 23.989 0 0 0 -28.523 18.4l-10.947 50.793 15.641 3.372 10.947-50.792a7.992 7.992 0 0 1 9.561-6.122l223.858 46.561 18.38 18.939a8 8 0 0 0 8.679 1.87l24.576-9.7 62.909 13.558h-69.833a8 8 0 0 0 -4.438 1.344l-19.562 13.043-6.674-4.445c-.078-.053-.158-.1-.238-.153l-12.644-8.442a8 8 0 0 0 -4.444-1.347h-256a24.028 24.028 0 0 0 -24 24v160a24.028 24.028 0 0 0 24 24h49.944l-19.155 32.248 13.756 8.171 52.864-90.761a11.255 11.255 0 0 1 9.749-5.658 11.227 11.227 0 0 1 10.364 15.546l-28.907 69.377a8 8 0 0 0 .729 7.515 86.991 86.991 0 0 1 14.656 48.406v4.667a87.717 87.717 0 0 1 -9.213 39.027l-5.942 11.884a7.994 7.994 0 0 0 -.845 3.578v24h-64v-24c0-.167-.005-.333-.016-.5l-6.422-102.75a122.3 122.3 0 0 1 .827-23.7l-15.862-2.108a138.353 138.353 0 0 0 -.933 26.8l6.406 102.508v31.75a8 8 0 0 0 8 8h80a8 8 0 0 0 8-8v-30.111l5.1-10.2a103.8 103.8 0 0 0 10.9-46.178v-4.667a102.9 102.9 0 0 0 -15.011-53.619l13.011-31.225h138a8 8 0 0 0 4.438-1.344l19.562-13.041 19.562 13.041a8 8 0 0 0 4.438 1.344h11.325l13.011 31.225a102.9 102.9 0 0 0 -15.011 53.619v4.667a103.8 103.8 0 0 0 10.9 46.182l5.1 10.2v30.107a8 8 0 0 0 8 8h80a8 8 0 0 0 8-8v-31.75l6.406-102.5a137.369 137.369 0 0 0 -3.769-41.75h4.038a24.028 24.028 0 0 0 24-24s-.035-161.133-.075-161.719a23.944 23.944 0 0 0 -18.869-25.021zm-21.293 251.49-6.422 102.75c-.011.166-.016.332-.016.5v24h-64v-24a7.994 7.994 0 0 0 -.845-3.578l-5.943-11.884a87.733 87.733 0 0 1 -9.212-39.027v-4.667a86.994 86.994 0 0 1 14.656-48.406 8 8 0 0 0 .729-7.515l-28.91-69.377a11.227 11.227 0 0 1 10.366-15.546 11.248 11.248 0 0 1 9.748 5.657l52.866 90.762 13.756-8.171-19.154-32.248h28.035a121.435 121.435 0 0 1 4.346 40.75zm24.237-64.75a8.009 8.009 0 0 1 -8 8h-58.032l-13.968-24.443v-23.557h-14.562a27.225 27.225 0 0 0 -44.4 29.7l7.625 18.3h-2.236l-21.984-14.656a8 8 0 0 0 -8.876 0l-21.989 14.656h-128.911l7.162-17.188a7.991 7.991 0 0 0 4.171 1.188h24a8 8 0 0 0 7.155-4.422l21.789-43.578h51.056a8 8 0 0 0 8-8v-16a8 8 0 0 0 -2.343-5.657l-16-16a8 8 0 0 0 -5.657-2.343h-35.056l-21.789-43.578a8 8 0 0 0 -7.155-4.422h-24a8 8 0 0 0 -7.59 10.53l12.49 37.47h-1.587l-13.656-13.657a8 8 0 0 0 -5.657-2.343h-16a8 8 0 0 0 -8 8v48a8 8 0 0 0 8 8h36.9l-8.417 25.251a27.22 27.22 0 0 0 -48.965-3.532l-11.518 20.156v-9.875h-64v16h60.5l-9.143 16h-59.357a8.009 8.009 0 0 1 -8-8v-160a8.009 8.009 0 0 1 8-8h253.574l10.864 7.253c.083.056.167.11.253.163l10.874 7.242a8 8 0 0 0 8.873 0l21.984-14.658h125.578a7.976 7.976 0 0 1 7.944 6.983c0 .051.008.1.013.151.026.289.043 160.866.043 160.866zm-292.9-136h7.956l16 32h-13.29zm73.587 48 11.313 11.313v4.687h-120v-32h4.687l13.656 13.657a8 8 0 0 0 5.657 2.343zm-62.921 32h13.29l-16 32h-7.956z"/><path d="m48 136h64v16h-64z"/><path d="m48 168h64v16h-64z"/><path d="m48 200h64v16h-64z"/><path d="m48 232h64v16h-64z"/><path d="m448 248h16v32h-16z"/><path d="m416 248h16v32h-16z"/><path d="m312 152h16v16h-16z"/><path d="m312 184h16v16h-16z"/><path d="m312 216h16v16h-16z"/><path d="m312 248h16v16h-16z"/><path d="m352 144h40v16h-40z"/><path d="m352 176h56v16h-56z"/><path d="m352 208h40v16h-40z"/><path d="m432 144h32v16h-32z"/><path d="m432 176h32v16h-32z"/><path d="m432 208h32v16h-32z"/></g></svg>